# xmcd
#
# Track frame offsets:
#	150
#	8545
#	18065
#	27345
#	38665
#	48470
#	58548
#	70752
#	83692
#	95875
#	107233
#	119956
#	135338
#	147851
#	159524
#	171039
#	183177
#	194917
#	209861
#	223296
#	233671
#	247984
#	260774
#	272837
#
# Disc length: 3770 seconds
#
# Revision: 0
# Processed by: cddbd v1.5.2PL0 Copyright (c) Steve Scherf et al.
# Submitted via: EasyCDDAExtractor 8.2.3.1
#
DISCID=610eb818
DTITLE=Liz Anderson - Like A Merry-Go-Round -68 and Country Style -69
DYEAR=1969
DGENRE=Country
TTITLE0=Me  Me  Me  Me  Me
TTITLE1=Did You Have To Bring That Up (While I Was Eating)
TTITLE2=Like A Merry-Go-Round
TTITLE3=Thanks  But No Thanks
TTITLE4=No Another Time
TTITLE5=Tonight I'll Throw A Party
TTITLE6=Love Is Ending
TTITLE7=Blue Are The Violets
TTITLE8=Take Me To Your World
TTITLE9=Your Hold On Me Is Gone
TTITLE10=Cry  Cry Again
TTITLE11=Little Things
TTITLE12=Why Don't They Go Home
TTITLE13=Maybe Not
TTITLE14=Money  Marbles And Chalk
TTITLE15=I Walk Alone
TTITLE16=What's Milwaukee Famous
TTITLE17=This Stranger  My Little Girl
TTITLE18=Nothing Between Us
TTITLE19=Free
TTITLE20=When The Grass Grows Over Me
TTITLE21=D-I-V-O-R-C-E
TTITLE22=Eyes  Don't Come Crying To Me
TTITLE23=I Already Know (What I'm Getting For My Birthday)
EXTD=
EXTT0=
EXTT1=
EXTT2=
EXTT3=
EXTT4=
EXTT5=
EXTT6=
EXTT7=
EXTT8=
EXTT9=
EXTT10=
EXTT11=
EXTT12=
EXTT13=
EXTT14=
EXTT15=
EXTT16=
EXTT17=
EXTT18=
EXTT19=
EXTT20=
EXTT21=
EXTT22=
EXTT23=
PLAYORDER=
